<svg data-v-423bf9ae="" xmlns="http://www.w3.org/2000/svg" viewBox="0 0 366 90" class="iconLeft"><!----><!----><!----><g data-v-423bf9ae="" id="1c46a775-d886-493c-ba7f-18dbcf781c17" fill="#FFFFFF" transform="matrix(4.709576222757963,0,0,4.709576222757963,159.4852897797499,-4.733126073351457)"><path d="M0.98 7.06C1.20 7.06 1.39 6.93 1.48 6.75C1.53 6.68 1.54 6.59 1.54 6.50C1.54 6.17 1.65 5.88 1.88 5.64C2.07 5.43 2.34 5.31 2.62 5.31C2.90 5.31 3.16 5.43 3.37 5.64C3.58 5.88 3.71 6.17 3.71 6.50C3.71 6.59 3.72 6.68 3.77 6.75C3.85 6.93 4.05 7.06 4.27 7.06C4.48 7.06 4.68 6.93 4.77 6.75C4.80 6.68 4.83 6.59 4.83 6.50C4.83 5.22 3.84 4.19 2.62 4.19L2.60 4.19C1.64 4.20 0.80 4.87 0.52 5.81C0.46 6.02 0.42 6.26 0.42 6.50C0.42 6.59 0.45 6.68 0.48 6.75C0.57 6.93 0.76 7.06 0.98 7.06ZM3.71 7.07C3.71 7.07 3.71 7.08 3.71 7.08C3.71 7.41 3.58 7.71 3.37 7.94C3.18 8.15 2.93 8.26 2.66 8.27L2.62 8.27L1.54 8.27L1.54 7.07C1.40 7.21 1.20 7.29 0.98 7.29C0.76 7.29 0.56 7.21 0.42 7.07L0.42 13.44C0.42 13.75 0.67 14 0.98 14L2.62 14C3.84 14 4.83 12.96 4.83 11.69L4.83 10.60C4.83 9.90 4.52 9.27 4.06 8.85C4.52 8.41 4.83 7.78 4.83 7.08C4.68 7.21 4.48 7.29 4.27 7.29C4.05 7.29 3.85 7.21 3.71 7.07ZM3.71 11.69C3.71 12.01 3.58 12.32 3.37 12.54C3.16 12.75 2.90 12.88 2.62 12.88L1.54 12.88L1.54 9.41L2.62 9.41L2.66 9.41C2.93 9.41 3.18 9.53 3.37 9.74C3.58 9.97 3.71 10.28 3.71 10.60ZM6.79 11.12C6.65 10.98 6.45 10.89 6.23 10.89C6.02 10.89 5.81 10.98 5.67 11.12L5.67 4.79C5.67 4.48 5.92 4.23 6.23 4.23C6.54 4.23 6.79 4.48 6.79 4.79ZM6.23 11.13C6.54 11.13 6.79 11.38 6.79 11.69C6.79 12.01 6.92 12.32 7.13 12.54C7.32 12.77 7.59 12.88 7.87 12.88C8.18 12.88 8.47 12.74 8.68 12.47C8.88 12.24 9.23 12.21 9.46 12.40C9.72 12.60 9.74 12.95 9.55 13.19C9.13 13.71 8.53 14 7.87 14C6.66 14 5.67 12.96 5.67 11.69C5.67 11.38 5.92 11.13 6.23 11.13ZM12.22 6.65C11.02 6.65 10.02 7.69 10.02 8.96L10.02 11.12C10.16 10.98 10.36 10.89 10.58 10.89C10.81 10.89 11.00 10.98 11.14 11.12L11.14 8.96C11.14 8.64 11.26 8.33 11.48 8.11C11.68 7.88 11.94 7.77 12.22 7.77C12.50 7.77 12.77 7.88 12.98 8.11C13.19 8.33 13.31 8.64 13.31 8.96L13.31 11.12C13.45 10.98 13.65 10.89 13.87 10.89C14.08 10.89 14.28 10.98 14.43 11.12L14.43 8.96C14.43 7.69 13.44 6.65 12.22 6.65ZM13.87 11.13C13.65 11.13 13.45 11.26 13.37 11.44C13.33 11.51 13.31 11.59 13.31 11.69C13.31 12.01 13.19 12.32 12.98 12.54C12.77 12.75 12.50 12.88 12.22 12.88C11.94 12.88 11.68 12.75 11.48 12.54C11.26 12.32 11.14 12.01 11.14 11.69C11.14 11.59 11.13 11.51 11.09 11.44C10.99 11.26 10.81 11.13 10.58 11.13C10.36 11.13 10.18 11.26 10.08 11.44C10.05 11.51 10.02 11.59 10.02 11.69C10.02 12.96 11.02 14 12.22 14L12.24 14C13.22 14 14.04 13.31 14.32 12.38C14.39 12.17 14.43 11.93 14.43 11.69C14.43 11.59 14.41 11.51 14.38 11.44C14.28 11.26 14.08 11.13 13.87 11.13ZM19.68 11.12C19.53 10.98 19.33 10.89 19.12 10.89C18.90 10.89 18.70 10.98 18.56 11.12L18.56 8.96C18.56 8.64 18.44 8.33 18.23 8.11C18.02 7.90 17.75 7.77 17.47 7.77C17.19 7.77 16.93 7.90 16.73 8.11C16.51 8.33 16.39 8.64 16.39 8.96L16.39 11.12C16.25 10.98 16.06 10.89 15.83 10.89C15.61 10.89 15.41 10.98 15.27 11.12L15.27 8.96C15.27 7.69 16.27 6.65 17.47 6.65C18.69 6.65 19.68 7.69 19.68 8.96ZM17.47 14C16.27 14 15.27 12.96 15.27 11.69C15.27 11.38 15.53 11.13 15.83 11.13C16.14 11.13 16.39 11.38 16.39 11.69C16.39 12.01 16.51 12.32 16.73 12.54C16.93 12.77 17.19 12.88 17.47 12.88C17.75 12.88 18.02 12.77 18.23 12.54C18.44 12.32 18.56 12.01 18.56 11.69C18.56 11.38 18.82 11.13 19.12 11.13C19.43 11.13 19.68 11.38 19.68 11.69C19.68 12.96 18.69 14 17.47 14ZM19.68 14.62C19.68 15.89 18.69 16.93 17.47 16.93C16.88 16.93 16.34 16.73 15.95 16.38C15.51 16.00 15.27 15.46 15.27 14.84C15.27 14.52 15.53 14.28 15.83 14.28C16.14 14.28 16.39 14.52 16.39 14.84C16.39 15.13 16.49 15.37 16.69 15.54C16.88 15.71 17.16 15.81 17.47 15.81C17.75 15.81 18.02 15.68 18.23 15.47C18.44 15.23 18.56 14.94 18.56 14.62L18.56 13.97C19.05 13.72 19.45 13.30 19.68 12.78ZM24.16 6.50C24.16 6.26 24.21 6.02 24.26 5.81C24.54 4.87 25.38 4.20 26.35 4.19L26.36 4.19C27.58 4.19 28.57 5.22 28.57 6.50C28.57 6.59 28.55 6.68 28.52 6.75C28.42 6.93 28.22 7.06 28.01 7.06C27.79 7.06 27.59 6.93 27.51 6.75C27.47 6.68 27.45 6.59 27.45 6.50C27.45 6.17 27.33 5.88 27.12 5.64C26.91 5.43 26.64 5.31 26.36 5.31C26.08 5.31 25.82 5.43 25.62 5.64C25.40 5.88 25.28 6.17 25.28 6.50C25.28 6.59 25.27 6.68 25.23 6.75C25.13 6.93 24.95 7.06 24.72 7.06C24.50 7.06 24.32 6.93 24.22 6.75C24.19 6.68 24.16 6.59 24.16 6.50ZM28.57 8.60C28.57 9.87 27.58 10.91 26.36 10.91C25.97 10.91 25.61 10.79 25.28 10.61L25.28 13.44C25.28 13.75 25.03 14 24.72 14C24.42 14 24.16 13.75 24.16 13.44L24.16 7.11C24.30 7.25 24.50 7.34 24.72 7.34C24.95 7.34 25.14 7.25 25.28 7.11L25.28 8.60C25.28 8.92 25.40 9.23 25.62 9.45C25.82 9.67 26.08 9.79 26.36 9.79C26.64 9.79 26.91 9.67 27.12 9.45C27.33 9.23 27.45 8.92 27.45 8.60L27.45 7.11C27.59 7.25 27.79 7.34 28.01 7.34C28.22 7.34 28.42 7.25 28.57 7.11ZM31.40 6.65C30.20 6.65 29.20 7.69 29.20 8.96L29.20 11.12C29.34 10.98 29.54 10.89 29.76 10.89C29.99 10.89 30.18 10.98 30.32 11.12L30.32 8.96C30.32 8.64 30.44 8.33 30.66 8.11C30.86 7.88 31.12 7.77 31.40 7.77C31.68 7.77 31.95 7.88 32.16 8.11C32.37 8.33 32.49 8.64 32.49 8.96L32.49 11.12C32.63 10.98 32.83 10.89 33.05 10.89C33.26 10.89 33.46 10.98 33.61 11.12L33.61 8.96C33.61 7.69 32.62 6.65 31.40 6.65ZM33.05 11.13C32.83 11.13 32.63 11.26 32.55 11.44C32.51 11.51 32.49 11.59 32.49 11.69C32.49 12.01 32.37 12.32 32.16 12.54C31.95 12.75 31.68 12.88 31.40 12.88C31.12 12.88 30.86 12.75 30.66 12.54C30.44 12.32 30.32 12.01 30.32 11.69C30.32 11.59 30.31 11.51 30.27 11.44C30.17 11.26 29.99 11.13 29.76 11.13C29.54 11.13 29.36 11.26 29.26 11.44C29.23 11.51 29.20 11.59 29.20 11.69C29.20 12.96 30.20 14 31.40 14L31.42 14C32.40 14 33.22 13.31 33.50 12.38C33.57 12.17 33.61 11.93 33.61 11.69C33.61 11.59 33.59 11.51 33.56 11.44C33.46 11.26 33.26 11.13 33.05 11.13ZM34.45 8.97C34.45 8.74 34.50 8.50 34.55 8.29C34.83 7.35 35.67 6.66 36.64 6.66L36.65 6.66C37.87 6.66 38.86 7.70 38.86 8.97C38.86 9.07 38.84 9.16 38.81 9.23C38.71 9.41 38.51 9.53 38.30 9.53C38.08 9.53 37.88 9.41 37.80 9.23C37.76 9.16 37.74 9.07 37.74 8.97C37.74 8.65 37.62 8.34 37.41 8.12C37.20 7.91 36.93 7.78 36.65 7.78C36.37 7.78 36.11 7.91 35.91 8.12C35.69 8.34 35.57 8.65 35.57 8.97C35.57 9.07 35.56 9.16 35.52 9.23C35.42 9.41 35.24 9.53 35.01 9.53C34.79 9.53 34.61 9.41 34.51 9.23C34.48 9.16 34.45 9.07 34.45 8.97ZM37.51 11.69C37.51 11.70 37.49 11.72 37.49 11.73L35.10 9.77C35.50 9.73 35.81 9.38 35.81 8.97L35.81 8.90L38.23 10.89C37.83 10.92 37.51 11.27 37.51 11.69ZM38.86 11.69C38.86 11.93 38.82 12.17 38.75 12.38C38.47 13.31 37.65 14 36.67 14L36.65 14C35.45 14 34.45 12.96 34.45 11.69C34.45 11.59 34.48 11.51 34.51 11.44C34.61 11.26 34.79 11.13 35.01 11.13C35.24 11.13 35.42 11.26 35.52 11.44C35.56 11.51 35.57 11.59 35.57 11.69C35.57 12.01 35.69 12.32 35.91 12.54C36.11 12.75 36.37 12.88 36.65 12.88C36.93 12.88 37.20 12.75 37.41 12.54C37.62 12.32 37.74 12.01 37.74 11.69C37.74 11.59 37.76 11.51 37.80 11.44C37.88 11.26 38.08 11.13 38.30 11.13C38.51 11.13 38.71 11.26 38.81 11.44C38.84 11.51 38.86 11.59 38.86 11.69ZM42.31 6.66C42.31 6.97 42.06 7.22 41.75 7.22L40.82 7.22L40.82 11.12C40.68 10.98 40.49 10.89 40.26 10.89C40.04 10.89 39.84 10.98 39.70 11.12L39.70 4.76C39.70 4.45 39.96 4.20 40.26 4.20C40.57 4.20 40.82 4.45 40.82 4.76L40.82 6.10L41.75 6.10C42.06 6.10 42.31 6.36 42.31 6.66ZM40.26 11.13C40.57 11.13 40.82 11.38 40.82 11.69C40.82 12.01 40.95 12.32 41.16 12.54C41.36 12.77 41.62 12.88 41.90 12.88C42.21 12.88 42.50 12.74 42.71 12.47C42.91 12.24 43.26 12.21 43.50 12.40C43.75 12.60 43.78 12.95 43.58 13.19C43.16 13.71 42.56 14 41.90 14C40.70 14 39.70 12.96 39.70 11.69C39.70 11.38 39.96 11.13 40.26 11.13Z"></path></g><!----><g data-v-423bf9ae="" id="13998d93-687b-4e7e-a619-ab48117697f8" transform="matrix(1.4146329646914977,0,0,1.4146329646914977,0.2683463690286203,0)" stroke="none" fill="#9563C5"><path d="M40.592 41.293V23.226c0-4.67 3.617-8.457 8.079-8.457h17.675v-4.307C66.346 4.685 61.868 0 56.35 0H9.996C4.477 0 0 4.685 0 10.463v22.354C0 38.594 4.477 43.28 9.996 43.28h7.649v12.352c0 .682.936 1.162 1.422.59 3.645-4.314 7.287-8.627 10.933-12.941h10.825a8.794 8.794 0 0 1-.233-1.988z"></path><path d="M45.178 26.205v20.168c0 4.211 3.263 7.627 7.289 7.627h19.21l7.97 9.434c.354.42 1.036.068 1.036-.428V54h12.029c4.025 0 7.288-3.416 7.288-7.627V26.205c0-4.212-3.263-7.629-7.288-7.629H52.467c-4.026 0-7.289 3.416-7.289 7.629z"></path></g><!----></svg>